# xmcd
#
# Track frame offsets: 
#        150
#        17452
#        34502
#        49357
#        62035
#        75827
#        91502
#        104875
#        116685
#        127647
#        140032
#
# Disc length: 2021 seconds
#
# Revision: 2
# Processed by: cddbd v1.5.1PL0 Copyright (c) Steve Scherf et al.
# Submitted via: ExactAudioCopy v0.95a5
#
DISCID=8307e30b
DTITLE=Lowell Fulson - My Baby
DYEAR=1996
DGENRE=Blues
TTITLE0=Look At You Baby
TTITLE1=Why Don't We Do It In The Road
TTITLE2=Sleeper
TTITLE3=Lady In The Rain
TTITLE4=My Baby
TTITLE5=Man On The Run
TTITLE6=Don't Destroy Me
TTITLE7=This Feeling
TTITLE8=Trouble Everywhere
TTITLE9=Cheating Woman
TTITLE10=Man Of Motion
EXTD=
EXTT0=
EXTT1=
EXTT2=
EXTT3=
EXTT4=
EXTT5=
EXTT6=
EXTT7=
EXTT8=
EXTT9=
EXTT10=
PLAYORDER=
